<?xml version="1.0" encoding="UTF-8" standalone="no"?>
<svg
   xmlns:dc="http://purl.org/dc/elements/1.1/"
   xmlns:cc="http://creativecommons.org/ns#"
   xmlns:rdf="http://www.w3.org/1999/02/22-rdf-syntax-ns#"
   xmlns:svg="http://www.w3.org/2000/svg"
   xmlns="http://www.w3.org/2000/svg"
   id="svg12"
   xml:space="preserve"
   enable-background="new 0 0 100 100"
   viewBox="0 0 100 125"
   y="0px"
   x="0px"
   version="1.1"><metadata
     id="metadata18"><rdf:RDF><cc:Work
         rdf:about=""><dc:format>image/svg+xml</dc:format><dc:type
           rdf:resource="http://purl.org/dc/dcmitype/StillImage" /><dc:title></dc:title></cc:Work></rdf:RDF></metadata><defs
     id="defs16" /><g
     style="fill:#333333;fill-opacity:1"
     id="g6"><path
       style="fill:#333333;fill-opacity:1"
       id="path2"
       d="M86.61,51.982H75.992c0.355-0.823,0.562-1.768,0.562-2.854c0-2.859-3.651-7.008-7.814-8.877   c-0.104-0.047-0.213-0.063-0.32-0.072v-5.585c0-0.553-0.447-1-1-1h-6.452c0.423-0.928,0.713-1.909,0.857-2.922   c0.018-0.038,0.044-0.07,0.058-0.11c0.06-0.179,0.051-0.357,0.013-0.529c0.024-0.297,0.04-0.595,0.04-0.895   c0-5.943-4.836-10.779-10.779-10.779s-10.778,4.836-10.778,10.779c0,1.553,0.334,3.065,0.968,4.456h-6.453c-0.553,0-1,0.447-1,1   v5.598c-0.091,0.014-0.182,0.023-0.271,0.063c-6.074,2.785-9.093,7.474-9.901,8.897c-1.515,0.429-2.776,1.465-3.498,2.832H13.39   c-0.553,0-1,0.447-1,1s0.447,1,1,1h6.212c-0.025,0.217-0.041,0.437-0.041,0.661c0,0.439,0.062,0.899,0.191,1.408   c0.039,0.151,0.119,0.278,0.215,0.391c-0.264,0.489-0.406,1.017-0.406,1.563c0,0.362,0.073,0.735,0.225,1.14   c0.146,0.391,0.52,0.65,0.937,0.65h9.102c0.416,0,0.789-0.258,0.936-0.647c0.152-0.404,0.227-0.777,0.227-1.143   c0-0.546-0.143-1.074-0.407-1.563c0.095-0.113,0.175-0.239,0.214-0.389c0.13-0.507,0.193-0.969,0.193-1.41   c0-0.224-0.016-0.444-0.041-0.661h2.948v5.68c0,0.553,0.447,1,1,1h32.527c0.514,0,0.921-0.392,0.978-0.891   c2.729,1.558,3.144,3.958,2.875,6.795H18.976c-0.553,0-1,0.447-1,1s0.447,1,1,1h52.027c-0.072,0.442-0.148,0.89-0.227,1.346   c-0.715,4.13-1.526,8.812,2.645,11.564c0.17,0.111,0.36,0.165,0.55,0.165c0.325,0,0.644-0.158,0.836-0.449   c0.304-0.461,0.177-1.081-0.284-1.386c-3.078-2.031-2.475-5.517-1.775-9.553c0.096-0.556,0.193-1.12,0.281-1.688h9.136   c0.553,0,1-0.447,1-1s-0.447-1-1-1h-8.888c0.303-3.582-0.359-7.029-4.856-9.016v-0.719c1.959-0.259,4.497-1.082,6.216-2.848H86.61   c0.553,0,1-0.447,1-1S87.163,51.982,86.61,51.982z M59.918,28.802c-1.496-0.598-2.646-1.223-3.452-1.715   c1.195-0.654,2.074-1.201,2.665-1.597C59.598,26.505,59.873,27.623,59.918,28.802z M51.156,20.358c2.82,0,5.327,1.342,6.934,3.415   c-1.705,1.148-6.497,3.998-15.56,6.905c-0.09-0.506-0.152-1.019-0.152-1.54C42.377,24.297,46.315,20.358,51.156,20.358z    M43.09,32.598c4.946-1.582,8.662-3.144,11.33-4.453c0.836,0.589,2.66,1.725,5.325,2.723c-0.192,0.957-0.524,1.88-1.023,2.726   h-15.13C43.401,33.272,43.236,32.939,43.09,32.598z M25.273,50.931c2.047,0,3.713,1.666,3.713,3.713   c0,0.054-0.002,0.107-0.005,0.162h-0.3h-6.816h-0.299c-0.003-0.055-0.005-0.108-0.005-0.162   C21.561,52.597,23.226,50.931,25.273,50.931z M21.58,57.796c0.076-0.419,0.367-0.759,0.631-0.99h6.125   c0.265,0.231,0.556,0.571,0.632,0.99H21.58z M30.324,51.982c-0.823-1.556-2.344-2.683-4.143-2.972   c1.205-1.736,3.687-4.655,7.711-6.657v9.629H30.324z M66.419,58.662H35.892V35.594h7.148h16.231h7.147V58.662z M68.419,54.802   v-5.889l0.943-0.23c0.537-0.131,0.866-0.672,0.735-1.208s-0.674-0.87-1.208-0.735l-0.471,0.115v-4.536   c3.586,1.809,6.135,5.241,6.135,6.81C74.554,53.309,70.414,54.479,68.419,54.802z" /><path
       style="fill:#333333;fill-opacity:1"
       id="path4"
       d="M51.156,43.397c-2.057,0-3.73,1.674-3.73,3.73s1.674,3.73,3.73,3.73s3.73-1.674,3.73-3.73S53.212,43.397,51.156,43.397z    M51.156,48.858c-0.954,0-1.73-0.776-1.73-1.73s0.776-1.73,1.73-1.73s1.73,0.776,1.73,1.73S52.11,48.858,51.156,48.858z" /></g></svg>